<svg xmlns="http://www.w3.org/2000/svg" viewBox="0 0 64 64" width="64" height="64">
  <defs>
    <linearGradient id="bg" x1="32" y1="14" x2="32" y2="54" gradientUnits="userSpaceOnUse">
      <stop offset="0%" stop-color="#3ddc84"/>
      <stop offset="100%" stop-color="#137038"/>
    </linearGradient>
  </defs>
  <path d="M 18 14 H 42 L 50 22 V 50 Q 50 54 46 54 H 18 Q 14 54 14 50 V 18 Q 14 14 18 14 Z" fill="url(#bg)"/>
  <path d="M 42 14 V 22 H 50 Z" fill="#0d4d28" opacity="0.55"/>
  <rect x="16" y="16" width="24" height="1.6" rx="0.8" fill="rgba(255,255,255,0.22)"/>
  <!-- Android-ish body: half-circle head + body -->
  <path d="M 22 36 Q 22 30 28 27 L 26 24 M 38 24 L 36 27 Q 42 30 42 36 Z" stroke="#fff" stroke-width="1.6" fill="#fff" stroke-linejoin="round"/>
  <circle cx="27" cy="33" r="1.2" fill="#137038"/>
  <circle cx="37" cy="33" r="1.2" fill="#137038"/>
  <rect x="22" y="37" width="20" height="10" rx="1.5" fill="#fff"/>
</svg>
