<svg xmlns="http://www.w3.org/2000/svg" viewBox="0 0 64 64" width="64" height="64">
  <defs>
    <linearGradient id="bg" x1="32" y1="14" x2="32" y2="54" gradientUnits="userSpaceOnUse">
      <stop offset="0%" stop-color="#374151"/>
      <stop offset="100%" stop-color="#030712"/>
    </linearGradient>
  </defs>
  <path d="M 18 14 H 42 L 50 22 V 50 Q 50 54 46 54 H 18 Q 14 54 14 50 V 18 Q 14 14 18 14 Z" fill="url(#bg)"/>
  <path d="M 42 14 V 22 H 50 Z" fill="#000" opacity="0.55"/>
  <rect x="16" y="16" width="24" height="1.6" rx="0.8" fill="rgba(255,255,255,0.22)"/>
  <!-- Apple silhouette -->
  <path d="M 36.5 30 Q 35 32 32 31.6 Q 30 31 28 32 Q 24 33 24 39 Q 24 44 27 47 Q 29 49 31 48 Q 32 47.5 33 47.5 Q 34 47.5 35 48 Q 37 49 39 47 Q 42 44 42 39 Q 42 33 38 32 Q 37 31.6 36.5 30 Z" fill="#fff"/>
  <path d="M 34 29 Q 35 26 38 26 Q 37.5 28 36 29 Q 34.8 29.4 34 29 Z" fill="#fff"/>
</svg>
