<svg xmlns="http://www.w3.org/2000/svg" viewBox="0 0 64 64" width="64" height="64">
  <defs>
    <linearGradient id="bg" x1="32" y1="14" x2="32" y2="54" gradientUnits="userSpaceOnUse">
      <stop offset="0%" stop-color="#a855f7"/>
      <stop offset="100%" stop-color="#5b21b6"/>
    </linearGradient>
  </defs>
  <path d="M 18 14 H 42 L 50 22 V 50 Q 50 54 46 54 H 18 Q 14 54 14 50 V 18 Q 14 14 18 14 Z" fill="url(#bg)"/>
  <path d="M 42 14 V 22 H 50 Z" fill="#3b1882" opacity="0.55"/>
  <rect x="16" y="16" width="24" height="1.6" rx="0.8" fill="rgba(255,255,255,0.22)"/>
  <!-- Stylized zipper teeth on a center line -->
  <rect x="31" y="26" width="2" height="22" fill="rgba(255,255,255,0.35)"/>
  <rect x="28" y="28" width="4" height="2" fill="#fff"/>
  <rect x="32" y="31" width="4" height="2" fill="#fff"/>
  <rect x="28" y="34" width="4" height="2" fill="#fff"/>
  <rect x="32" y="37" width="4" height="2" fill="#fff"/>
  <rect x="28" y="40" width="4" height="2" fill="#fff"/>
  <rect x="32" y="43" width="4" height="2" fill="#fff"/>
  <rect x="28" y="46" width="4" height="2" fill="#fff"/>
</svg>
