<svg xmlns="http://www.w3.org/2000/svg" viewBox="0 0 64 64" width="64" height="64">
  <defs>
    <linearGradient id="bg" x1="32" y1="14" x2="32" y2="58" gradientUnits="userSpaceOnUse">
      <stop offset="0%" stop-color="#e6a02a"/>
      <stop offset="100%" stop-color="#8a5a00"/>
    </linearGradient>
  </defs>
  <path d="M 10 14 Q 10 10 14 10 H 28 Q 31 10 32 13 L 34 17 H 10 Z" fill="#8a5a00"/>
  <rect x="6" y="16" width="52" height="42" rx="7" ry="7" fill="url(#bg)"/>
  <path d="M 13 18 H 51 Q 56 18 56 23 V 22 Q 56 19 53 19 H 11 Q 8 19 8 22 V 23 Q 8 18 13 18 Z" fill="rgba(255,255,255,0.18)"/>
  <!-- Stylized USB plug glyph -->
  <path d="M 32 26 V 46" stroke="#fff" stroke-width="2.6" stroke-linecap="round"/>
  <path d="M 32 26 L 28 30 H 36 Z" fill="#fff"/>
  <circle cx="26" cy="38" r="2" fill="#fff"/>
  <path d="M 26 38 L 32 38" stroke="#fff" stroke-width="2.4" stroke-linecap="round"/>
  <rect x="36" y="36" width="3.5" height="3.5" rx="0.6" fill="#fff"/>
  <path d="M 39.5 37.75 L 32 37.75" stroke="#fff" stroke-width="2.4" stroke-linecap="round"/>
</svg>
