<svg xmlns="http://www.w3.org/2000/svg" viewBox="0 0 64 64" width="64" height="64">
  <defs>
    <linearGradient id="bg" x1="32" y1="14" x2="32" y2="58" gradientUnits="userSpaceOnUse">
      <stop offset="0%" stop-color="#2c5f4d"/>
      <stop offset="100%" stop-color="#0f2e23"/>
    </linearGradient>
  </defs>
  <path d="M 10 14 Q 10 10 14 10 H 28 Q 31 10 32 13 L 34 17 H 10 Z" fill="#0f2e23"/>
  <rect x="6" y="16" width="52" height="42" rx="7" ry="7" fill="url(#bg)"/>
  <path d="M 13 18 H 51 Q 56 18 56 23 V 22 Q 56 19 53 19 H 11 Q 8 19 8 22 V 23 Q 8 18 13 18 Z" fill="rgba(255,255,255,0.18)"/>
  <!-- Four-square app-grid glyph -->
  <rect x="22" y="29" width="8" height="8" rx="1.6" fill="#fff"/>
  <rect x="34" y="29" width="8" height="8" rx="1.6" fill="#fff" opacity="0.85"/>
  <rect x="22" y="41" width="8" height="8" rx="1.6" fill="#fff" opacity="0.85"/>
  <rect x="34" y="41" width="8" height="8" rx="1.6" fill="#fff" opacity="0.7"/>
</svg>
