<svg xmlns="http://www.w3.org/2000/svg" viewBox="0 0 64 64" width="64" height="64">
  <defs>
    <linearGradient id="bg" x1="32" y1="14" x2="32" y2="54" gradientUnits="userSpaceOnUse">
      <stop offset="0%" stop-color="#0ea5e9"/>
      <stop offset="100%" stop-color="#075985"/>
    </linearGradient>
  </defs>
  <path d="M 18 14 H 42 L 50 22 V 50 Q 50 54 46 54 H 18 Q 14 54 14 50 V 18 Q 14 14 18 14 Z" fill="url(#bg)"/>
  <path d="M 42 14 V 22 H 50 Z" fill="#053650" opacity="0.55"/>
  <rect x="16" y="16" width="24" height="1.6" rx="0.8" fill="rgba(255,255,255,0.22)"/>
  <!-- Stacked containers (whale-ish docker hint) -->
  <rect x="20" y="38" width="5" height="5" rx="0.6" fill="#fff"/>
  <rect x="26" y="38" width="5" height="5" rx="0.6" fill="#fff"/>
  <rect x="32" y="38" width="5" height="5" rx="0.6" fill="#fff"/>
  <rect x="26" y="32" width="5" height="5" rx="0.6" fill="#fff" opacity="0.85"/>
  <rect x="32" y="32" width="5" height="5" rx="0.6" fill="#fff" opacity="0.85"/>
  <rect x="32" y="26" width="5" height="5" rx="0.6" fill="#fff" opacity="0.7"/>
  <path d="M 20 46 Q 26 49 38 47 Q 42 46 44 43" stroke="#fff" stroke-width="1.6" fill="none" stroke-linecap="round"/>
</svg>
