<svg xmlns="http://www.w3.org/2000/svg" viewBox="0 0 64 64" width="64" height="64">
  <defs>
    <linearGradient id="bg" x1="32" y1="14" x2="32" y2="54" gradientUnits="userSpaceOnUse">
      <stop offset="0%" stop-color="#64748b"/>
      <stop offset="100%" stop-color="#1e293b"/>
    </linearGradient>
  </defs>
  <path d="M 18 14 H 42 L 50 22 V 50 Q 50 54 46 54 H 18 Q 14 54 14 50 V 18 Q 14 14 18 14 Z" fill="url(#bg)"/>
  <path d="M 42 14 V 22 H 50 Z" fill="#0f172a" opacity="0.55"/>
  <rect x="16" y="16" width="24" height="1.6" rx="0.8" fill="rgba(255,255,255,0.22)"/>
  <!-- Gear -->
  <circle cx="32" cy="38" r="5.6" fill="none" stroke="#fff" stroke-width="2"/>
  <circle cx="32" cy="38" r="1.8" fill="#fff"/>
  <g stroke="#fff" stroke-width="2" stroke-linecap="round">
    <line x1="32" y1="29" x2="32" y2="31.5"/>
    <line x1="32" y1="44.5" x2="32" y2="47"/>
    <line x1="23" y1="38" x2="25.5" y2="38"/>
    <line x1="38.5" y1="38" x2="41" y2="38"/>
    <line x1="25.6" y1="31.6" x2="27.4" y2="33.4"/>
    <line x1="36.6" y1="42.6" x2="38.4" y2="44.4"/>
    <line x1="25.6" y1="44.4" x2="27.4" y2="42.6"/>
    <line x1="36.6" y1="33.4" x2="38.4" y2="31.6"/>
  </g>
</svg>
